<?xml version="1.0" encoding="UTF-8"?>
<svg width="137px" height="77px" viewBox="0 0 137 77" version="1.1" xmlns="http://www.w3.org/2000/svg" xmlns:xlink="http://www.w3.org/1999/xlink">
    <!-- Generator: Sketch 64 (93537) - https://sketch.com -->
    <title>Group 5@3x</title>
    <desc>Created with Sketch.</desc>
    <g id="online-portfolio-v4" stroke="none" stroke-width="1" fill="none" fill-rule="evenodd">
        <g id="2_about-the-Project-Copy" transform="translate(-1056.000000, -1040.000000)">
            <g id="Group-5" transform="translate(1056.000000, 1040.000000)">
                <path d="M96.960041,2 C86.5167925,2 77.0572233,5.95965385 70.2117348,12.3772993 C63.4144783,18.7497273 59.1977459,27.5496035 59.1977459,37.2771516 C59.1977459,46.2274055 62.7674304,54.3937356 68.6333595,60.6045694 L66.1694654,67.4005438 L63.9744198,73.4546211 L78.2079958,67.9038475 C83.7362001,70.864888 90.1377757,72.5543033 96.960041,72.5543033 C107.403289,72.5543033 116.862859,68.5946494 123.708347,62.1770039 C130.505604,55.804576 134.722336,47.0046998 134.722336,37.2771516 C134.722336,27.5496035 130.505604,18.7497273 123.708347,12.3772993 C116.862859,5.95965385 107.403289,2 96.960041,2 Z" id="Combined-Shape" stroke="#C1307F" stroke-width="4" transform="translate(96.960041, 38.460553) scale(-1, 1) translate(-96.960041, -38.460553) "></path>
                <path d="M40.1567623,7.04918033 C29.6952905,7.04918033 20.2155034,10.7395635 13.3567931,16.7345843 C6.60213288,22.6386578 2.39446721,30.7864196 2.39446721,39.8043716 C2.39446721,46.105339 4.4485671,51.9856859 7.99303311,56.9687959 L4.58455508,64.9725213 L3.57725723,67.3374815 L14.3935373,63.7466092 C21.1566294,69.225056 30.212554,72.5595628 40.1567623,72.5595628 C50.618234,72.5595628 60.0980212,68.8691796 66.9567314,62.8741588 C73.7113917,56.9700854 77.9190574,48.8223236 77.9190574,39.8043716 C77.9190574,30.7864196 73.7113917,22.6386578 66.9567314,16.7345843 C60.0980212,10.7395635 50.618234,7.04918033 40.1567623,7.04918033 Z" id="Combined-Shape-Copy" stroke="#C1307F" stroke-width="4" fill="#FFFFFF"></path>
                <text id="?" font-family="SFCompactRounded-Bold, SF Compact Rounded" font-size="34" font-weight="bold" letter-spacing="-1.13333333" fill="#C1307F">
                    <tspan x="32.5123074" y="50">?</tspan>
                </text>
                <text id="…" font-family="SFCompactRounded-Bold, SF Compact Rounded" font-size="34" font-weight="bold" letter-spacing="-1.13333333" fill="#C1307F">
                    <tspan x="86" y="38">…</tspan>
                </text>
            </g>
        </g>
    </g>
</svg>