<?xml version="1.0" encoding="UTF-8"?>
<svg width="77px" height="77px" viewBox="0 0 77 77" version="1.1" xmlns="http://www.w3.org/2000/svg" xmlns:xlink="http://www.w3.org/1999/xlink">
    <!-- Generator: Sketch 64 (93537) - https://sketch.com -->
    <title>invision</title>
    <desc>Created with Sketch.</desc>
    <g id="online-portfolio-v4" stroke="none" stroke-width="1" fill="none" fill-rule="evenodd">
        <g id="2_about-the-Project-Copy" transform="translate(-662.000000, -1040.000000)" fill-rule="nonzero">
            <g id="invision" transform="translate(662.000000, 1040.000000)">
                <path d="M70.0197695,0 L6.98023047,0 C3.12511719,0 0,3.12511719 0,6.98023047 L0,70.0197695 C0,73.8748828 3.12511719,77 6.98023047,77 L70.0197695,77 C73.8748828,77 77,73.8748828 77,70.0197695 L77,6.98023047 C77,3.12511719 73.8748828,0 70.0197695,0" id="Path" fill="#DC395F"></path>
                <path d="M25.6250496,24.1933041 C28.1705062,24.1933041 30.302887,22.2035147 30.302887,19.5956079 C30.302887,16.989491 28.1705062,15 25.6250496,15 C23.079593,15 20.9478104,16.989491 20.9478104,19.5956079 C20.9478104,22.2032164 23.079593,24.1933041 25.6250496,24.1933041 M15.9259924,48.810608 C15.651107,49.9770362 15.5132156,51.23654 15.5132156,52.2639515 C15.5132156,56.3124419 17.7143925,59 22.3922299,59 C26.2717332,59 29.4169126,56.7023452 31.6815016,52.9921488 L30.2986994,58.5268657 L38.0023699,58.5268657 L42.4053219,40.9143959 C43.5060599,36.4551199 45.6384407,34.1404609 48.8718586,34.1404609 C51.4170161,34.1404609 52.9990279,35.7191663 52.9990279,38.3252832 C52.9990279,39.0803292 52.9302318,39.9027954 52.6550473,40.7950682 L50.3847751,48.8905575 C50.0407945,50.0569858 49.9038005,51.2240106 49.9038005,52.3209305 C49.9038005,56.1641773 52.1731753,58.9752395 56.9198088,58.9752395 C60.9784811,58.9752395 64.2113007,56.3694209 66,50.1258975 L62.9735687,48.9606625 C61.460054,53.1433966 60.1529276,53.8996359 59.1209857,53.8996359 C58.0890438,53.8996359 57.5386748,53.2140983 57.5386748,51.8427247 C57.5386748,51.2252039 57.6768653,50.5399646 57.8826554,49.7148136 L60.0844306,41.8278495 C60.6345005,39.9758836 60.8411879,38.3336362 60.8411879,36.8247374 C60.8411879,30.9245795 57.2637894,27.8453283 52.9302318,27.8453283 C48.8718586,27.8453283 44.7440911,31.4964575 42.6808055,35.3391076 L44.1937221,28.4419667 L32.4313793,28.4419667 L30.7802723,34.5169398 L36.2836632,34.5169398 L32.8947063,48.0487006 C30.2334927,53.9488586 25.3450793,54.0446191 24.7315973,53.9076905 C23.7241828,53.6809679 23.0798921,53.2994176 23.0798921,51.9939726 C23.0798921,51.2407165 23.2174843,50.1587126 23.561465,48.8541626 L28.7211744,28.4419667 L15.651107,28.4419667 L14,34.5169398 L19.4339966,34.5169398 L15.9262915,48.810608" id="Shape" fill="#FFFFFF"></path>
            </g>
        </g>
    </g>
</svg>