<?xml version="1.0" encoding="UTF-8"?>
<svg width="45px" height="45px" viewBox="0 0 45 45" version="1.1" xmlns="http://www.w3.org/2000/svg" xmlns:xlink="http://www.w3.org/1999/xlink">
    <!-- Generator: Sketch 64 (93537) - https://sketch.com -->
    <title>Group 3@3x</title>
    <desc>Created with Sketch.</desc>
    <g id="website" stroke="none" stroke-width="1" fill="none" fill-rule="evenodd">
        <g id="Tablet-Project1" transform="translate(-362.000000, -12563.000000)">
            <g id="Group-3" transform="translate(364.000000, 12565.000000)">
                <path d="M20.3660349,40.7320698 L20.3660349,40.7320698 C9.1182093,40.7320698 -3.19744231e-14,31.6143372 -3.19744231e-14,20.3665116 L-3.19744231e-14,20.3660349 C-3.19744231e-14,9.1182093 9.1182093,-4.26325641e-14 20.3665116,-4.26325641e-14 C31.6133837,-4.26325641e-14 40.731593,9.1182093 40.731593,20.3655581 L40.731593,20.3660349 C40.731593,31.6138605 31.6133837,40.7320698 20.3660349,40.7320698 Z" id="Stroke-27" stroke="#272C2A" stroke-width="4"></path>
                <path d="M23.2760814,16.459593 C23.2274535,16.459593 23.1878837,16.4195465 23.1878837,16.3704419 L23.1878837,14.3652558 C23.1878837,14.3156744 23.2274535,14.2765814 23.2760814,14.2765814 L29.4303721,14.2765814 C29.479,14.2765814 29.5190465,14.3156744 29.5190465,14.3652558 L29.5190465,16.3704419 C29.5190465,16.4195465 29.479,16.459593 29.4303721,16.459593 L23.2760814,16.459593 Z M12.180814,19.148907 L15.5900116,19.148907 C15.9957209,19.148907 16.3766395,18.966314 16.6350349,18.6488023 C16.892,18.3327209 16.9911628,17.9222442 16.9077326,17.5203488 C16.7790116,16.9053488 16.1978605,16.459593 15.5237442,16.459593 L12.180814,16.459593 L12.180814,19.148907 Z M12.180814,24.6886744 L15.9337442,24.6886744 C16.3938023,24.6886744 16.8414651,24.4989302 17.1627907,24.1671163 C17.4736279,23.8457907 17.6376279,23.4286395 17.6233256,22.9924186 C17.5708837,21.3929419 15.9203953,21.3123721 15.5900116,21.3123721 L12.180814,21.3123721 L12.180814,24.6886744 Z M9.39805814,27.5596279 C9.34895349,27.5596279 9.30938372,27.5195814 9.30938372,27.4709535 L9.30938372,13.6768372 C9.30938372,13.6282093 9.34895349,13.5881628 9.39805814,13.5881628 L16.2979767,13.5881628 C18.2330814,13.5881628 19.8077674,15.1709535 19.8077674,17.1160698 C19.8077674,18.2435698 19.2561744,19.311 18.3322442,19.9731977 L18.2240233,20.0504302 L18.3465465,20.1023953 C19.6642674,20.6630465 20.5157326,21.9359535 20.5157326,23.3447326 C20.5157326,25.6683837 18.6235349,27.5596279 16.2984535,27.5596279 L9.39805814,27.5596279 Z M26.3634767,19.2485465 C25.2350233,19.2485465 24.3392209,20.0022791 24.1342209,21.1245349 L24.1180116,21.2122558 L28.5851047,21.2122558 L28.5660349,21.1216744 C28.3238488,19.9841628 27.4595116,19.2485465 26.3634767,19.2485465 Z M26.3634767,27.5596279 C23.3151744,27.5596279 21.1030814,25.3489651 21.1030814,22.3025698 C21.1030814,19.2685698 23.3151744,17.0669651 26.3634767,17.0669651 C29.398907,17.0669651 31.6024186,19.2685698 31.6024186,22.3025698 L31.6024186,22.7073256 L23.9778488,22.7073256 L23.9859535,22.7893256 C24.1346977,24.2891628 25.134907,25.3775698 26.3634767,25.3775698 C27.5157674,25.3775698 28.3057326,24.6629302 28.5879651,23.3642791 C28.5970233,23.3228023 28.6318256,23.2941977 28.6733023,23.2941977 L31.4055233,23.2941977 C31.4322209,23.2941977 31.4570116,23.306593 31.4741744,23.3275698 C31.491814,23.3490233 31.4984884,23.3757209 31.4927674,23.4024186 C31.1046977,25.298907 29.8994884,27.5596279 26.3634767,27.5596279 L26.3634767,27.5596279 Z" id="Fill-28" fill="#272C2A"></path>
            </g>
        </g>
    </g>
</svg>