<?xml version="1.0" encoding="UTF-8"?>
<svg width="48px" height="48px" viewBox="0 0 48 48" version="1.1" xmlns="http://www.w3.org/2000/svg" xmlns:xlink="http://www.w3.org/1999/xlink">
    <!-- Generator: Sketch 64 (93537) - https://sketch.com -->
    <title>Group 3</title>
    <desc>Created with Sketch.</desc>
    <g id="website" stroke="none" stroke-width="1" fill="none" fill-rule="evenodd">
        <g id="Mobile-home" transform="translate(-136.000000, -1419.000000)">
            <g id="Group-3" transform="translate(137.000000, 1420.000000)">
                <path d="M23.0002692,46 L23.0002692,46 C10.2975994,46 0,35.7030595 0,23.0005384 L0,23 C0,10.2974789 10.2975994,0 23.0008076,0 C35.7024006,0 46,10.2974789 46,22.9994616 L46,23 C46,35.7025211 35.7024006,46 23.0002692,46 Z" id="Stroke-27" stroke="#272C2A" stroke-width="2"></path>
                <path d="M25.9666977,18.8714302 C25.9180698,18.8714302 25.8785,18.8313837 25.8785,18.7822791 L25.8785,16.777093 C25.8785,16.7275116 25.9180698,16.6884186 25.9666977,16.6884186 L32.1209884,16.6884186 C32.1696163,16.6884186 32.2096628,16.7275116 32.2096628,16.777093 L32.2096628,18.7822791 C32.2096628,18.8313837 32.1696163,18.8714302 32.1209884,18.8714302 L25.9666977,18.8714302 Z M14.8714302,21.5607442 L18.2806279,21.5607442 C18.6863372,21.5607442 19.0672558,21.3781512 19.3256512,21.0606395 C19.5826163,20.7445581 19.6817791,20.3340814 19.5983488,19.932186 C19.4696279,19.317186 18.8884767,18.8714302 18.2143605,18.8714302 L14.8714302,18.8714302 L14.8714302,21.5607442 Z M14.8714302,27.1005116 L18.6243605,27.1005116 C19.0844186,27.1005116 19.5320814,26.9107674 19.853407,26.5789535 C20.1642442,26.2576279 20.3282442,25.8404767 20.3139419,25.4042558 C20.2615,23.8047791 18.6110116,23.7242093 18.2806279,23.7242093 L14.8714302,23.7242093 L14.8714302,27.1005116 Z M12.0886744,29.9714651 C12.0395698,29.9714651 12,29.9314186 12,29.8827907 L12,16.0886744 C12,16.0400465 12.0395698,16 12.0886744,16 L18.988593,16 C20.9236977,16 22.4983837,17.5827907 22.4983837,19.527907 C22.4983837,20.655407 21.9467907,21.7228372 21.0228605,22.3850349 L20.9146395,22.4622674 L21.0371628,22.5142326 C22.3548837,23.0748837 23.2063488,24.3477907 23.2063488,25.7565698 C23.2063488,28.0802209 21.3141512,29.9714651 18.9890698,29.9714651 L12.0886744,29.9714651 Z M29.054093,21.6603837 C27.9256395,21.6603837 27.0298372,22.4141163 26.8248372,23.5363721 L26.8086279,23.624093 L31.2757209,23.624093 L31.2566512,23.5335116 C31.0144651,22.396 30.1501279,21.6603837 29.054093,21.6603837 Z M29.054093,29.9714651 C26.0057907,29.9714651 23.7936977,27.7608023 23.7936977,24.714407 C23.7936977,21.680407 26.0057907,19.4788023 29.054093,19.4788023 C32.0895233,19.4788023 34.2930349,21.680407 34.2930349,24.714407 L34.2930349,25.1191628 L26.6684651,25.1191628 L26.6765698,25.2011628 C26.825314,26.701 27.8255233,27.789407 29.054093,27.789407 C30.2063837,27.789407 30.9963488,27.0747674 31.2785814,25.7761163 C31.2876395,25.7346395 31.3224419,25.7060349 31.3639186,25.7060349 L34.0961395,25.7060349 C34.1228372,25.7060349 34.1476279,25.7184302 34.1647907,25.739407 C34.1824302,25.7608605 34.1891047,25.7875581 34.1833837,25.8142558 C33.795314,27.7107442 32.5901047,29.9714651 29.054093,29.9714651 L29.054093,29.9714651 Z" id="Be" fill="#272C2A"></path>
            </g>
        </g>
    </g>
</svg>