<?xml version="1.0" encoding="UTF-8"?>
<svg width="45px" height="45px" viewBox="0 0 45 45" version="1.1" xmlns="http://www.w3.org/2000/svg" xmlns:xlink="http://www.w3.org/1999/xlink">
    <!-- Generator: Sketch 64 (93537) - https://sketch.com -->
    <title>Group 2@2x</title>
    <desc>Created with Sketch.</desc>
    <g id="website" stroke="none" stroke-width="1" fill="none" fill-rule="evenodd">
        <g id="Tablet-Project1" transform="translate(-461.000000, -12563.000000)">
            <g id="Group-2" transform="translate(463.000000, 12565.000000)">
                <g id="Group" transform="translate(7.000000, 7.000000)" fill="#000000" fill-rule="nonzero">
                    <path d="M12.9999725,26 C5.83153647,26 0,20.167334 0,12.9993133 C0,5.83261105 5.83153647,0 12.9999725,0 C20.1684086,0 26,5.83261105 26,12.9993133 C26,20.167334 20.1684086,26 12.9999725,26 Z M23.3894808,14.6862102 C23.0298505,14.5740837 20.132484,13.7083857 16.8353879,14.2358912 C18.2116727,18.0176475 18.7720192,21.0998903 18.8794634,21.7386983 C21.2399937,20.1425025 22.921088,17.6143546 23.3894808,14.6862102 Z M17.1109745,22.7028984 C16.9534886,21.7797912 16.342606,18.5614143 14.8651941,14.7230729 C14.8429472,14.730819 14.8198215,14.7376312 14.7958168,14.7462014 C8.86156024,16.8128781 6.73096921,20.9312336 6.54134897,21.3182651 C8.32477896,22.7088865 10.5675931,23.5390402 12.9999725,23.5390402 C14.457225,23.5390402 15.8472424,23.2401277 17.1109745,22.7028984 Z M5.18258702,20.0518014 C5.42054614,19.6433445 8.30890403,14.861734 13.7354925,13.1072646 C13.8728738,13.0627106 14.011134,13.0216177 14.1498336,12.9830519 C13.8861121,12.3841283 13.5989352,11.7872373 13.2967623,11.1964443 C8.04227117,12.7694567 2.94323351,12.7043563 2.48209159,12.694138 C2.47907041,12.8011554 2.47742249,12.9086122 2.47742249,13.0156296 C2.47742249,15.7189167 3.50182222,18.1863591 5.18258702,20.0518014 Z M2.69956161,10.860779 C3.1705361,10.8667122 7.50543495,10.8847315 12.4277061,9.57887797 C10.6844853,6.47867069 8.80382824,3.87251225 8.52598954,3.4932269 C5.58237152,4.88121132 3.38152432,7.59526612 2.69956161,10.860779 Z M10.5341953,2.78635195 C10.8252723,3.17552597 12.736251,5.77783882 14.4606306,8.94649766 C18.2029937,7.54225187 19.786092,5.41475989 19.9749432,5.14584306 C18.1170274,3.49580894 15.6733872,2.49436156 12.9999176,2.49436156 C12.1506914,2.49436156 11.325305,2.59539078 10.5341953,2.78635195 Z M21.1449089,6.3613801 C20.9235937,6.66199561 19.1594444,8.92254511 15.2692632,10.5096763 C15.5141985,11.0123503 15.748697,11.5226605 15.9679248,12.0347836 C16.0446078,12.2171746 16.1203021,12.3978625 16.193964,12.5776715 C19.6953467,12.1375159 23.1740981,12.8426878 23.5221381,12.9171824 C23.4985729,10.4334786 22.6111699,8.15271231 21.1449089,6.3613801 Z" id="Shape"></path>
                </g>
                <path d="M20.3660349,40.7320698 L20.3660349,40.7320698 C9.1182093,40.7320698 -3.19744231e-14,31.6143372 -3.19744231e-14,20.3665116 L-3.19744231e-14,20.3660349 C-3.19744231e-14,9.1182093 9.1182093,-4.26325641e-14 20.3665116,-4.26325641e-14 C31.6133837,-4.26325641e-14 40.731593,9.1182093 40.731593,20.3655581 L40.731593,20.3660349 C40.731593,31.6138605 31.6133837,40.7320698 20.3660349,40.7320698 Z" id="Stroke-27-Copy" stroke="#272C2A" stroke-width="4"></path>
            </g>
        </g>
    </g>
</svg>