<?xml version="1.0" encoding="UTF-8"?>
<svg width="48px" height="48px" viewBox="0 0 48 48" version="1.1" xmlns="http://www.w3.org/2000/svg" xmlns:xlink="http://www.w3.org/1999/xlink">
    <!-- Generator: Sketch 64 (93537) - https://sketch.com -->
    <title>Group@3x</title>
    <desc>Created with Sketch.</desc>
    <g id="website" stroke="none" stroke-width="1" fill="none" fill-rule="evenodd">
        <g id="Mobile-home" transform="translate(-37.000000, -1419.000000)">
            <g id="Group" transform="translate(38.000000, 1420.000000)">
                <path d="M23,46 C10.2974789,46 0,35.7025211 0,23 C0,10.2974789 10.2974789,-2.27373675e-13 23,-2.27373675e-13 C35.7025211,-2.27373675e-13 46,10.2974789 46,23 C46,35.7025211 35.7025211,46 23,46 Z" id="Stroke-23" stroke="#272C2A" stroke-width="2"></path>
                <path d="M18,15 C18,16.1044776 17.1041266,17 15.9997739,17 C14.8958734,17 14,16.1044776 14,15 C14,13.8955224 14.8958734,13 15.9997739,13 C17.1041266,13 18,13.8955224 18,15 Z M14,32 L18,32 L18,19 L14,19 L14,32 Z M33,24.7161063 L33,32 L28.7413622,32 L28.7413622,25.2042885 C28.7413622,23.4978633 28.1266112,22.3327157 26.5842804,22.3327157 C25.4078255,22.3327157 24.7087941,23.1173467 24.3999314,23.876905 C24.287888,24.1482812 24.2591336,24.5253564 24.2591336,24.9063646 L24.2591336,32 L20,32 C20,32 20.0570132,20.4901108 20,19.2984155 L24.2591336,19.2984155 L24.2591336,21.0982491 C24.2502097,21.1129978 24.2383113,21.1262716 24.2303791,21.1400371 L24.2591336,21.1400371 L24.2591336,21.0982491 C24.8252994,20.2344666 25.8346808,19 28.0968652,19 C30.8989398,19 33,20.8155656 33,24.7161063 L33,24.7161063 Z" id="in" fill="#272C2A"></path>
            </g>
        </g>
    </g>
</svg>