<?xml version="1.0" encoding="UTF-8"?>
<svg width="45px" height="45px" viewBox="0 0 45 45" version="1.1" xmlns="http://www.w3.org/2000/svg" xmlns:xlink="http://www.w3.org/1999/xlink">
    <!-- Generator: Sketch 64 (93537) - https://sketch.com -->
    <title>Group</title>
    <desc>Created with Sketch.</desc>
    <g id="website" stroke="none" stroke-width="1" fill="none" fill-rule="evenodd">
        <g id="Tablet-Project1" transform="translate(-263.000000, -12563.000000)">
            <g id="Group" transform="translate(265.000000, 12565.000000)">
                <path d="M20.5,41 L20.5,41 C9.17818769,41 0,31.8218123 0,20.5 C0,9.17818769 9.17818769,0 20.5,0 C31.8218123,0 41,9.17818769 41,20.5 C41,31.8218123 31.8218123,41 20.5,41 Z" id="Stroke-23" stroke="#272C2A" stroke-width="4"></path>
                <path d="M15,12 C15,13.1044776 14.1041266,14 12.9997739,14 C11.8958734,14 11,13.1044776 11,12 C11,10.8955224 11.8958734,10 12.9997739,10 C14.1041266,10 15,10.8955224 15,12 Z M11,29 L15,29 L15,16 L11,16 L11,29 Z M30,21.7161063 L30,29 L25.7413622,29 L25.7413622,22.2042885 C25.7413622,20.4978633 25.1266112,19.3327157 23.5842804,19.3327157 C22.4078255,19.3327157 21.7087941,20.1173467 21.3999314,20.876905 C21.287888,21.1482812 21.2591336,21.5253564 21.2591336,21.9063646 L21.2591336,29 L17,29 C17,29 17.0570132,17.4901108 17,16.2984155 L21.2591336,16.2984155 L21.2591336,18.0982491 C21.2502097,18.1129978 21.2383113,18.1262716 21.2303791,18.1400371 L21.2591336,18.1400371 L21.2591336,18.0982491 C21.8252994,17.2344666 22.8346808,16 25.0968652,16 C27.8989398,16 30,17.8155656 30,21.7161063 L30,21.7161063 Z" id="Fill-24" fill="#272C2A"></path>
            </g>
        </g>
    </g>
</svg>