<?xml version="1.0" encoding="UTF-8"?>
<svg width="44px" height="28px" viewBox="0 0 44 28" version="1.1" xmlns="http://www.w3.org/2000/svg" xmlns:xlink="http://www.w3.org/1999/xlink">
    <!-- Generator: Sketch 64 (93537) - https://sketch.com -->
    <title>logo@3x</title>
    <desc>Created with Sketch.</desc>
    <defs>
        <path d="M0.691894531,1.53710938 C0.843261719,1.53710938 0.961669922,1.47363281 1.04711914,1.34667969 C1.13256836,1.21972656 1.17529297,1.04638672 1.17529297,0.826660156 C1.17529297,0.602050781 1.13256836,0.428710938 1.04711914,0.306640625 C0.961669922,0.184570312 0.843261719,0.123535156 0.691894531,0.123535156 C0.384277344,0.123535156 0.23046875,0.357910156 0.23046875,0.826660156 C0.23046875,1.30029297 0.384277344,1.53710938 0.691894531,1.53710938 Z M1.05810547,11 L1.05810547,3.03857422 L0.333007812,3.03857422 L0.333007812,11 L1.05810547,11 Z M4.44921875,11 L4.44921875,6.60546875 C4.44921875,5.7265625 4.66650391,4.99902344 5.10107422,4.42285156 C5.53564453,3.84667969 6.09228516,3.55859375 6.77099609,3.55859375 C7.12744141,3.55859375 7.47167969,3.60009766 7.80371094,3.68310547 L7.80371094,3.68310547 L7.94287109,2.98730469 C7.55712891,2.91894531 7.19580078,2.88476562 6.85888672,2.88476562 C6.33154297,2.88476562 5.88232422,3.00317383 5.51123047,3.23999023 C5.14013672,3.47680664 4.79101562,3.88818359 4.46386719,4.47412109 L4.46386719,4.47412109 L4.41259766,4.47412109 L4.33935547,3.03857422 L3.72412109,3.03857422 L3.72412109,11 L4.44921875,11 Z M12.4765625,11.1464844 C12.9355469,11.1464844 13.3554688,11.111084 13.7363281,11.0402832 C14.1171875,10.9694824 14.5322266,10.8364258 14.9814453,10.6411133 L14.9814453,10.6411133 L14.9814453,9.98193359 C14.4541016,10.1918945 14.0183105,10.3286133 13.6740723,10.3920898 C13.329834,10.4555664 12.9306641,10.4873047 12.4765625,10.4873047 C11.5439453,10.4873047 10.8273926,10.1992188 10.3269043,9.62304688 C9.82641602,9.046875 9.57128906,8.21191406 9.56152344,7.11816406 L9.56152344,7.11816406 L15.2963867,7.11816406 L15.2963867,6.53222656 C15.2963867,5.40917969 15.0253906,4.52050781 14.4833984,3.86621094 C13.9414062,3.21191406 13.2016602,2.88476562 12.2641602,2.88476562 C11.2045898,2.88476562 10.3623047,3.2668457 9.73730469,4.03100586 C9.11230469,4.79516602 8.79980469,5.81201172 8.79980469,7.08154297 C8.79980469,8.36572266 9.12329102,9.36425781 9.77026367,10.0771484 C10.4172363,10.7900391 11.3193359,11.1464844 12.4765625,11.1464844 Z M14.5273438,6.47363281 L9.60546875,6.47363281 C9.68359375,5.52148438 9.95458984,4.79272461 10.418457,4.28735352 C10.8823242,3.78198242 11.4975586,3.52929688 12.2641602,3.52929688 C12.972168,3.52929688 13.5263672,3.78930664 13.9267578,4.30932617 C14.3271484,4.8293457 14.5273438,5.55078125 14.5273438,6.47363281 L14.5273438,6.47363281 Z M18.21875,11 L18.21875,6.60546875 C18.21875,5.53613281 18.4091797,4.75854492 18.7900391,4.27270508 C19.1708984,3.78686523 19.7788086,3.54394531 20.6137695,3.54394531 C21.8442383,3.54394531 22.4594727,4.21533203 22.4594727,5.55810547 L22.4594727,5.55810547 L22.4594727,11 L23.1992188,11 L23.1992188,6.33447266 C23.1992188,5.37255859 23.3945312,4.66699219 23.7851562,4.21777344 C24.1757812,3.76855469 24.7788086,3.54394531 25.5942383,3.54394531 C26.2192383,3.54394531 26.6831055,3.72216797 26.9858398,4.07861328 C27.2885742,4.43505859 27.4399414,5.00146484 27.4399414,5.77783203 L27.4399414,5.77783203 L27.4399414,11 L28.1577148,11 L28.1577148,5.79248047 C28.1577148,4.78173828 27.9404297,4.04443359 27.5058594,3.58056641 C27.0712891,3.11669922 26.4194336,2.88476562 25.550293,2.88476562 C24.9936523,2.88476562 24.4968262,3.00683594 24.0598145,3.25097656 C23.6228027,3.49511719 23.2749023,3.84423828 23.0161133,4.29833984 L23.0161133,4.29833984 L22.9868164,4.29833984 C22.6303711,3.35595703 21.824707,2.88476562 20.5698242,2.88476562 C20.081543,2.88476562 19.6347656,2.9934082 19.2294922,3.21069336 C18.8242188,3.42797852 18.5117188,3.734375 18.2919922,4.12988281 L18.2919922,4.12988281 L18.2480469,4.12988281 L18.0942383,3.03857422 L17.4936523,3.03857422 L17.4936523,11 L18.21875,11 Z" id="path-1"></path>
        <path d="M3.66552734,23.6894531 C4.73974609,23.6894531 5.57348633,23.3305664 6.16674805,22.612793 C6.76000977,21.8950195 7.05664062,20.8745117 7.05664062,19.5512695 C7.05664062,18.2036133 6.7746582,17.1794434 6.21069336,16.4787598 C5.64672852,15.7780762 4.80810547,15.4277344 3.69482422,15.4277344 C3.09423828,15.4277344 2.58032227,15.5400391 2.15307617,15.7646484 C1.72583008,15.9892578 1.36083984,16.3408203 1.05810547,16.8193359 L1.05810547,16.8193359 L1.00683594,16.8193359 L1.02880859,16.1967773 C1.04833984,15.8354492 1.05810547,15.4399414 1.05810547,15.0102539 L1.05810547,15.0102539 L1.05810547,12.1464844 L0.333007812,12.1464844 L0.333007812,23.5429688 L0.787109375,23.5429688 L0.9921875,22.3417969 L1.05810547,22.3417969 C1.32177734,22.7714844 1.68066406,23.1035156 2.13476562,23.3378906 C2.58886719,23.5722656 3.09912109,23.6894531 3.66552734,23.6894531 Z M3.66552734,23.0449219 C2.77197266,23.0449219 2.11401367,22.7836914 1.69165039,22.2612305 C1.26928711,21.7387695 1.05810547,20.8769531 1.05810547,19.6757812 L1.05810547,19.6757812 L1.05810547,19.5512695 C1.05810547,18.315918 1.26074219,17.4296875 1.66601562,16.8925781 C2.07128906,16.3554688 2.74267578,16.0869141 3.68017578,16.0869141 C5.41845703,16.0869141 6.28759766,17.2368164 6.28759766,19.5366211 C6.28759766,20.659668 6.06787109,21.5251465 5.62841797,22.1330566 C5.18896484,22.7409668 4.53466797,23.0449219 3.66552734,23.0449219 Z M11.121582,23.6894531 C11.6977539,23.6894531 12.1970215,23.583252 12.6193848,23.3708496 C13.041748,23.1584473 13.453125,22.7958984 13.8535156,22.2832031 L13.8535156,22.2832031 L13.9121094,22.2832031 L14.0952148,23.5429688 L14.6298828,23.5429688 L14.6298828,18.2475586 C14.6298828,17.2856445 14.4138184,16.5776367 13.9816895,16.1235352 C13.5495605,15.6694336 12.8964844,15.4423828 12.0224609,15.4423828 C11.1679688,15.4423828 10.3037109,15.6474609 9.4296875,16.0576172 L9.4296875,16.0576172 L9.70068359,16.6875 C10.4916992,16.2773438 11.2558594,16.0722656 11.9931641,16.0722656 C12.6767578,16.0722656 13.1723633,16.2651367 13.4799805,16.6508789 C13.7875977,17.0366211 13.9414062,17.6079102 13.9414062,18.3647461 L13.9414062,18.3647461 L13.9414062,18.8920898 L12.425293,18.9360352 C11.199707,18.9604492 10.2634277,19.1875 9.61645508,19.6171875 C8.96948242,20.046875 8.64599609,20.6499023 8.64599609,21.4262695 C8.64599609,22.1342773 8.86328125,22.6884766 9.29785156,23.0888672 C9.73242188,23.4892578 10.340332,23.6894531 11.121582,23.6894531 Z M11.1655273,23.0302734 C10.6088867,23.0302734 10.1779785,22.892334 9.87280273,22.6164551 C9.56762695,22.3405762 9.41503906,21.9536133 9.41503906,21.4555664 C9.41503906,20.8305664 9.65307617,20.3703613 10.1291504,20.0749512 C10.6052246,19.779541 11.4023438,19.6049805 12.5205078,19.5512695 L12.5205078,19.5512695 L13.9121094,19.4926758 L13.9121094,20.2763672 C13.9121094,21.140625 13.666748,21.8156738 13.1760254,22.3015137 C12.6853027,22.7873535 12.0151367,23.0302734 11.1655273,23.0302734 Z M16.8344727,27.1464844 C17.2055664,27.1464844 17.5217285,27.0805664 17.782959,26.9487305 C18.0441895,26.8168945 18.2724609,26.6191406 18.4677734,26.3554688 C18.6630859,26.0917969 18.9047852,25.5839844 19.1928711,24.8320312 L19.1928711,24.8320312 L22.7597656,15.581543 L22.0126953,15.581543 L20.328125,20.0053711 C19.8642578,21.2553711 19.5297852,22.1953125 19.324707,22.8251953 L19.324707,22.8251953 L19.2807617,22.8251953 C19.144043,22.3466797 18.8193359,21.4213867 18.3066406,20.0493164 L18.3066406,20.0493164 L16.6220703,15.581543 L15.875,15.581543 L18.921875,23.5429688 C18.8632812,23.7041016 18.732666,24.052002 18.5300293,24.5866699 C18.3273926,25.1213379 18.1491699,25.5119629 17.9953613,25.7585449 C17.8415527,26.005127 17.6694336,26.1870117 17.4790039,26.3041992 C17.2885742,26.4213867 17.0688477,26.4799805 16.8198242,26.4799805 C16.4926758,26.4799805 16.1875,26.440918 15.9042969,26.362793 L15.9042969,26.362793 L15.9042969,26.9926758 C16.2460938,27.0952148 16.5561523,27.1464844 16.8344727,27.1464844 Z M24.8178711,23.5429688 L24.8178711,19.1484375 C24.8178711,18.2695312 25.0351562,17.5419922 25.4697266,16.9658203 C25.9042969,16.3896484 26.4609375,16.1015625 27.1396484,16.1015625 C27.4960938,16.1015625 27.840332,16.1430664 28.1723633,16.2260742 L28.1723633,16.2260742 L28.3115234,15.5302734 C27.9257812,15.4619141 27.5644531,15.4277344 27.2275391,15.4277344 C26.7001953,15.4277344 26.2509766,15.5461426 25.8798828,15.782959 C25.5087891,16.0197754 25.159668,16.4311523 24.8325195,17.0170898 L24.8325195,17.0170898 L24.78125,17.0170898 L24.7080078,15.581543 L24.0927734,15.581543 L24.0927734,23.5429688 L24.8178711,23.5429688 Z M31.4902344,23.6894531 C32.0664062,23.6894531 32.5656738,23.583252 32.9880371,23.3708496 C33.4104004,23.1584473 33.8217773,22.7958984 34.222168,22.2832031 L34.222168,22.2832031 L34.2807617,22.2832031 L34.4638672,23.5429688 L34.9985352,23.5429688 L34.9985352,18.2475586 C34.9985352,17.2856445 34.7824707,16.5776367 34.3503418,16.1235352 C33.9182129,15.6694336 33.2651367,15.4423828 32.3911133,15.4423828 C31.5366211,15.4423828 30.6723633,15.6474609 29.7983398,16.0576172 L29.7983398,16.0576172 L30.0693359,16.6875 C30.8603516,16.2773438 31.6245117,16.0722656 32.3618164,16.0722656 C33.0454102,16.0722656 33.5410156,16.2651367 33.8486328,16.6508789 C34.15625,17.0366211 34.3100586,17.6079102 34.3100586,18.3647461 L34.3100586,18.3647461 L34.3100586,18.8920898 L32.7939453,18.9360352 C31.5683594,18.9604492 30.6320801,19.1875 29.9851074,19.6171875 C29.3381348,20.046875 29.0146484,20.6499023 29.0146484,21.4262695 C29.0146484,22.1342773 29.2319336,22.6884766 29.6665039,23.0888672 C30.1010742,23.4892578 30.7089844,23.6894531 31.4902344,23.6894531 Z M31.5341797,23.0302734 C30.9775391,23.0302734 30.5466309,22.892334 30.2414551,22.6164551 C29.9362793,22.3405762 29.7836914,21.9536133 29.7836914,21.4555664 C29.7836914,20.8305664 30.0217285,20.3703613 30.4978027,20.0749512 C30.973877,19.779541 31.7709961,19.6049805 32.8891602,19.5512695 L32.8891602,19.5512695 L34.2807617,19.4926758 L34.2807617,20.2763672 C34.2807617,21.140625 34.0354004,21.8156738 33.5446777,22.3015137 C33.0539551,22.7873535 32.3837891,23.0302734 31.5341797,23.0302734 Z M38.3017578,23.5429688 L38.3017578,20.7084961 L39.6054688,19.5219727 L42.6303711,23.5429688 L43.5019531,23.5429688 L40.0961914,18.9799805 L43.230957,15.581543 L42.3520508,15.581543 L38.2871094,20.0493164 L38.2504883,20.0493164 L38.3017578,17.859375 L38.3017578,12.1464844 L37.5766602,12.1464844 L37.5766602,23.5429688 L38.3017578,23.5429688 Z" id="path-2"></path>
    </defs>
    <g id="Page-1" stroke="none" stroke-width="1" fill="none" fill-rule="evenodd">
        <g id="logo" fill-rule="nonzero">
            <g id="irem">
                <use fill="#000000" xlink:href="#path-1"></use>
                <use fill="#FF4242" xlink:href="#path-1"></use>
            </g>
            <g id="bayrak">
                <use fill="#000000" xlink:href="#path-2"></use>
                <use fill="#FF4242" xlink:href="#path-2"></use>
            </g>
        </g>
    </g>
</svg>